<svg width="512" height="512" xmlns="http://www.w3.org/2000/svg" xmlns:xlink="http://www.w3.org/1999/xlink">
 <g>
  <title>background</title>
  <rect fill="none" id="canvas_background" height="402" width="582" y="-1" x="-1"/>
 </g>
 <g>
  <title>Layer 1</title>
  <defs>
   <path id="XMLID_157_" d="m489,255.9c0,-0.2 0,-0.5 0,-0.7c0,-1.6 0,-3.2 -0.1,-4.7c0,-0.9 -0.1,-1.8 -0.1,-2.8c0,-0.9 -0.1,-1.8 -0.1,-2.7c-0.1,-1.1 -0.1,-2.2 -0.2,-3.3c0,-0.7 -0.1,-1.4 -0.1,-2.1c-0.1,-1.2 -0.2,-2.4 -0.3,-3.6c0,-0.5 -0.1,-1.1 -0.1,-1.6c-0.1,-1.3 -0.3,-2.6 -0.4,-4c0,-0.3 -0.1,-0.7 -0.1,-1c-13.2,-116.2 -111.8,-206.5 -231.5,-206.5s-218.3,90.3 -231.5,206.6c0,0.3 -0.1,0.7 -0.1,1c-0.1,1.3 -0.3,2.6 -0.4,4c-0.1,0.5 -0.1,1.1 -0.1,1.6c-0.1,1.2 -0.2,2.4 -0.3,3.6c0,0.7 -0.1,1.4 -0.1,2.1c-0.1,1.1 -0.1,2.2 -0.2,3.3c0,0.9 -0.1,1.8 -0.1,2.7c0,0.9 -0.1,1.8 -0.1,2.8c0,1.6 -0.1,3.2 -0.1,4.7c0,0.2 0,0.5 0,0.7c0,0 0,0 0,0.1s0,0 0,0.1c0,0.2 0,0.5 0,0.7c0,1.6 0,3.2 0.1,4.7c0,0.9 0.1,1.8 0.1,2.8c0,0.9 0.1,1.8 0.1,2.7c0.1,1.1 0.1,2.2 0.2,3.3c0,0.7 0.1,1.4 0.1,2.1c0.1,1.2 0.2,2.4 0.3,3.6c0,0.5 0.1,1.1 0.1,1.6c0.1,1.3 0.3,2.6 0.4,4c0,0.3 0.1,0.7 0.1,1c13.2,116.1 111.8,206.4 231.5,206.4s218.3,-90.3 231.5,-206.5c0,-0.3 0.1,-0.7 0.1,-1c0.1,-1.3 0.3,-2.6 0.4,-4c0.1,-0.5 0.1,-1.1 0.1,-1.6c0.1,-1.2 0.2,-2.4 0.3,-3.6c0,-0.7 0.1,-1.4 0.1,-2.1c0.1,-1.1 0.1,-2.2 0.2,-3.3c0,-0.9 0.1,-1.8 0.1,-2.7c0,-0.9 0.1,-1.8 0.1,-2.8c0,-1.6 0.1,-3.2 0.1,-4.7c0,-0.2 0,-0.5 0,-0.7c0,-0.1 0,-0.1 0,-0.2c0,0.1 0,0.1 0,0z"/>
  </defs>
  <use id="svg_1" fill="#000000" xlink:href="#XMLID_157_"/>
  <clipPath id="XMLID_2_">
   <use id="svg_2" xlink:href="#XMLID_157_"/>
  </clipPath>
  <polyline stroke-miterlimit="10" stroke-width="12" stroke="#ffffff" fill="none" clip-path="url(#XMLID_2_)" points="29.4,253.5 20.6,253.5 23,253.5 78.8,253.5 111.1,182.9 140.6,313.5 158.5,258    204.8,258 231.4,193.8 274.7,349.9 294.4,274.8 344.1,274.8 371.2,166.1 391.5,244.1 466,244.1 478.8,203.1 494.9,244.1  " id="XMLID_158_" class="st0"/>
 </g>
</svg>